<?xml version="1.0" standalone="no"?>
<!DOCTYPE svg PUBLIC "-//W3C//DTD SVG 20010904//EN"
 "http://www.w3.org/TR/2001/REC-SVG-20010904/DTD/svg10.dtd">
<svg version="1.0" xmlns="http://www.w3.org/2000/svg"
 width="800.000000pt" height="800.000000pt" viewBox="0 0 800.000000 800.000000"
 preserveAspectRatio="xMidYMid meet">

<g transform="translate(0.000000,800.000000) scale(0.100000,-0.100000)"
fill="#000000" stroke="none">
<path d="M3595 4731 c-87 -40 -125 -114 -125 -240 1 -107 19 -141 150 -277 61
-63 118 -130 126 -149 17 -42 19 -136 2 -153 -7 -7 -21 -12 -33 -12 -37 0 -45
19 -45 112 l0 88 -100 0 -100 0 0 -100 c0 -168 42 -241 156 -276 61 -18 128
-18 191 1 99 29 147 124 147 290 -1 134 -23 177 -174 328 -91 91 -121 129
-126 154 -8 43 10 65 50 61 30 -3 31 -5 34 -55 l3 -53 106 0 106 0 -7 67 c-4
37 -15 86 -25 108 -22 50 -79 101 -128 114 -61 17 -163 13 -208 -8z"/>
<path d="M4040 4230 l0 -510 158 0 c86 0 174 5 194 10 93 26 140 123 142 295
1 136 -14 194 -61 236 l-35 30 26 20 c48 38 60 75 60 185 0 129 -24 187 -94
222 -41 20 -58 22 -217 22 l-173 0 0 -510z m261 350 c17 -9 19 -22 19 -103 0
-102 -7 -117 -52 -117 l-28 0 0 115 c0 110 1 115 21 115 11 0 29 -5 40 -10z
m10 -399 c23 -18 24 -26 24 -131 0 -105 -1 -113 -24 -131 -13 -10 -34 -19 -47
-19 l-24 0 0 150 0 150 24 0 c13 0 34 -9 47 -19z"/>
<path d="M4560 4695 c0 -18 5 -25 20 -25 19 0 20 -7 20 -110 l0 -110 25 0 25
0 0 110 c0 91 3 110 15 110 9 0 15 9 15 25 0 24 -3 25 -60 25 -57 0 -60 -1
-60 -25z"/>
<path d="M4700 4586 l0 -136 25 0 c25 0 25 2 26 83 l2 82 15 -82 c14 -76 17
-83 38 -83 25 0 26 3 43 95 l9 50 1 -72 c1 -71 2 -73 26 -73 l25 0 0 135 0
135 -39 0 c-43 0 -42 3 -58 -105 l-7 -50 -11 75 -10 75 -42 3 -43 3 0 -135z"/>
</g>
</svg>
